<svg data-v-0dd9719b="" version="1.0" xmlns="http://www.w3.org/2000/svg" xmlns:xlink="http://www.w3.org/1999/xlink" width="100%" height="100%" viewBox="0 0 340.000000 250.000000" preserveAspectRatio="xMidYMid meet" color-interpolation-filters="sRGB" style="margin: auto;">  <g data-v-0dd9719b="" fill="#333" class="iconlinesvg-g iconlinesvg" transform="translate(73.36260223388672,105.41431617736816)"><g class="tp-name"><g transform="translate(0, 2.48257951916025)"><g><g class="imagesvg"><g><rect fill="#333" fill-opacity="0" stroke-width="2" x="0" y="0" width="37.10802020741578" height="34.21103017241562" class="image-rect"></rect> <svg x="0" y="0" width="37.10802020741578" height="34.21103017241562" filtersec="colorsb4517507153" class="image-svg-svg primary" style="overflow: visible;"><svg xmlns="http://www.w3.org/2000/svg" viewBox="0 -0.0029719918966293335 153.130126953125 141.17527770996094"><path d="M68.25 117.26l55.13-55.48 27.91-28.09a22 22 0 0 0 1.84-8.88c0-13.52-12.4-24.52-27.81-24.81H58.76a28.59 28.59 0 0 0-29 28.22V106a27.36 27.36 0 0 0 24.38 15.31 26.61 26.61 0 0 0 14.11-4.05z" fill="#e62c5a" opacity=".8" style="isolation:isolate"></path><path d="M123.33 113V35.22A27.35 27.35 0 0 0 99 19.91a26.65 26.65 0 0 0-14.08 4L29.74 79.39l-27.9 28.16A22.18 22.18 0 0 0 0 116.38c0 13.51 12.39 24.5 27.79 24.79h66.6A28.58 28.58 0 0 0 123.33 113z" fill="#0fabf6" opacity=".8" style="isolation:isolate"></path><path d="M84.87 23.91L29.74 79.39V106a27.35 27.35 0 0 0 24.38 15.31 26.72 26.72 0 0 0 14.07-4l55.13-55.48V35.22A27.35 27.35 0 0 0 99 19.91a26.65 26.65 0 0 0-14.13 4z" fill="#501b8d" opacity=".5" style="isolation:isolate"></path></svg></svg> <!----></g></g></g></g><g transform="translate(41, 0)"><g data-gra="path-name" fill="#333" transform="scale(1)"><path d="M10.86 0.43L10.86 0.43Q7.84 0.43 5.88-0.69Q3.92-1.82 2.94-3.97Q1.96-6.12 1.96-9.18L1.96-9.18L1.96-18.46Q1.96-21.53 2.94-23.68Q3.92-25.83 5.88-26.95Q7.84-28.08 10.86-28.08L10.86-28.08Q13.87-28.08 15.86-26.95Q17.84-25.83 18.82-23.68Q19.80-21.53 19.80-18.46L19.80-18.46L19.80-9.18Q19.80-6.12 18.82-3.97Q17.84-1.82 15.86-0.69Q13.87 0.43 10.86 0.43ZM10.91-4.07L10.91-4.07Q12.01-4.07 12.53-4.69Q13.06-5.31 13.20-6.39Q13.35-7.46 13.35-8.75L13.35-8.75L13.35-18.89Q13.35-20.19 13.20-21.24Q13.06-22.29 12.53-22.94Q12.01-23.58 10.91-23.58L10.91-23.58Q9.81-23.58 9.28-22.94Q8.75-22.29 8.59-21.24Q8.42-20.19 8.42-18.89L8.42-18.89L8.42-8.75Q8.42-7.46 8.59-6.39Q8.75-5.31 9.28-4.69Q9.81-4.07 10.91-4.07Z" transform="translate(-1.9612011692798301, 38.74568163699177)"></path></g></g><g transform="translate(62, 0)"><g data-gra="path-name" fill="#333" transform="scale(1)"><path d="M10.81 0.43L10.81 0.43Q7.61 0.43 5.67-0.79Q3.73-2.01 2.85-4.28Q1.96-6.55 1.96-9.66L1.96-9.66L1.96-17.99Q1.96-21.19 2.85-23.44Q3.73-25.69 5.69-26.88Q7.65-28.08 10.81-28.08L10.81-28.08Q13.78-28.08 15.67-27.15Q17.56-26.21 18.42-24.32Q19.28-22.43 19.28-19.56L19.28-19.56L19.28-17.27L13.15-17.27L13.15-19.71Q13.15-21.14 12.94-21.98Q12.72-22.82 12.20-23.18Q11.67-23.53 10.81-23.53L10.81-23.53Q9.95-23.53 9.42-23.08Q8.90-22.63 8.68-21.62Q8.47-20.62 8.47-18.85L8.47-18.85L8.47-8.71Q8.47-6.03 9.04-5.09Q9.61-4.16 10.86-4.16L10.86-4.16Q11.82-4.16 12.32-4.59Q12.82-5.02 12.99-5.86Q13.15-6.70 13.15-7.89L13.15-7.89L13.15-10.86L19.28-10.86L19.28-8.23Q19.28-5.45 18.39-3.49Q17.51-1.53 15.62-0.55Q13.73 0.43 10.81 0.43Z" transform="translate(-1.9612011692798301, 38.74568163699177)"></path></g></g><g transform="translate(83, 0)"><g data-gra="path-name" fill="#333" transform="scale(1)"><path d="M9.18 0L2.68 0L2.68-27.65L9.18-27.65L9.18 0ZM9.18-32.05L2.68-32.05L2.68-37.45L9.18-37.45L9.18-32.05Z" transform="translate(-2.678713792187085, 38.74568163699177)"></path></g></g><g transform="translate(93, 0)"><g data-gra="path-name" fill="#333" transform="scale(1)"><path d="M7.84 0.43L7.84 0.43Q5.98 0.43 4.64-0.55Q3.30-1.53 2.58-3.04Q1.87-4.54 1.87-6.17L1.87-6.17Q1.87-8.75 2.82-10.52Q3.78-12.29 5.36-13.49Q6.94-14.69 8.94-15.57Q10.95-16.45 13.01-17.17L13.01-17.17L13.01-19.56Q13.01-20.76 12.84-21.57Q12.68-22.39 12.22-22.82Q11.77-23.25 10.81-23.25L10.81-23.25Q10.00-23.25 9.50-22.86Q8.99-22.48 8.78-21.79Q8.56-21.09 8.51-20.19L8.51-20.19L8.42-18.51L2.25-18.75Q2.39-23.53 4.62-25.81Q6.84-28.08 11.38-28.08L11.38-28.08Q15.55-28.08 17.44-25.78Q19.33-23.49 19.33-19.56L19.33-19.56L19.33-6.79Q19.33-5.26 19.40-4.02Q19.47-2.77 19.59-1.77Q19.71-0.77 19.80 0L19.80 0L13.97 0Q13.82-0.96 13.61-2.18Q13.39-3.40 13.30-3.97L13.30-3.97Q12.82-2.30 11.48-0.93Q10.14 0.43 7.84 0.43ZM10.24-4.40L10.24-4.40Q10.86-4.40 11.41-4.71Q11.96-5.02 12.39-5.45Q12.82-5.88 13.01-6.22L13.01-6.22L13.01-13.92Q11.96-13.30 11.03-12.68Q10.09-12.05 9.40-11.31Q8.71-10.57 8.35-9.71Q7.99-8.85 7.99-7.70L7.99-7.70Q7.99-6.17 8.59-5.29Q9.18-4.40 10.24-4.40Z" transform="translate(-1.8655328195588632, 38.74568163699177)"></path></g></g><g transform="translate(114, 0)"><g data-gra="path-name" fill="#333" transform="scale(1)"><path d="M9.38 0L2.92 0L2.92-38.75L9.38-38.75L9.38 0Z" transform="translate(-2.917884666489503, 38.74568163699177)"></path></g></g><g transform="translate(124, 0)"><g data-gra="path-name" fill="#333" transform="scale(1)"><path d="M11.05 0L5.41 0L1.15-27.65L6.55-27.65L8.99-9.71L11.86-27.65L16.69-27.65L19.42-9.52L22.05-27.65L27.17-27.65L22.82 0L17.32 0L14.25-17.46L11.05 0Z" transform="translate(-1.148020196651608, 38.74568163699177)"></path></g></g><g transform="translate(154, 0)"><g data-gra="path-name" fill="#333" transform="scale(1)"><path d="M10.86 0.43L10.86 0.43Q7.75 0.43 5.79-0.74Q3.83-1.91 2.89-4.19Q1.96-6.46 1.96-9.66L1.96-9.66L1.96-17.99Q1.96-21.29 2.89-23.53Q3.83-25.78 5.81-26.93Q7.80-28.08 10.86-28.08L10.86-28.08Q14.16-28.08 16.00-26.83Q17.84-25.59 18.63-23.22Q19.42-20.86 19.42-17.46L19.42-17.46L19.42-13.54L8.42-13.54L8.42-8.08Q8.42-6.74 8.68-5.88Q8.94-5.02 9.52-4.64Q10.09-4.26 10.91-4.26L10.91-4.26Q11.77-4.26 12.29-4.66Q12.82-5.07 13.06-5.86Q13.30-6.65 13.30-7.84L13.30-7.84L13.30-10.14L19.37-10.14L19.37-8.28Q19.37-4.07 17.27-1.82Q15.16 0.43 10.86 0.43ZM8.42-18.66L8.42-16.74L13.30-16.74L13.30-19.37Q13.30-20.81 13.06-21.69Q12.82-22.58 12.29-22.98Q11.77-23.39 10.81-23.39L10.81-23.39Q9.95-23.39 9.42-22.96Q8.90-22.53 8.66-21.53Q8.42-20.52 8.42-18.66L8.42-18.66Z" transform="translate(-1.96120116927983, 38.74568163699177)"></path></g></g><g transform="translate(175, 0)"><g data-gra="path-name" fill="#333" transform="scale(1)"><path d="M14.40 0.43L14.40 0.43Q12.87 0.43 11.53-0.29Q10.19-1.00 9.04-2.06L9.04-2.06L9.04 0L2.54 0L2.54-38.75L9.04-38.75L9.04-25.54Q10.24-26.69 11.65-27.39Q13.06-28.08 14.69-28.08L14.69-28.08Q16.55-28.08 17.75-27.22Q18.94-26.36 19.61-24.95Q20.28-23.53 20.54-21.93Q20.81-20.33 20.81-18.85L20.81-18.85L20.81-9.47Q20.81-6.74 20.16-4.50Q19.52-2.25 18.11-0.91Q16.69 0.43 14.40 0.43ZM11.91-4.11L11.91-4.11Q12.96-4.11 13.47-4.81Q13.97-5.50 14.13-6.67Q14.30-7.84 14.30-9.23L14.30-9.23L14.30-19.13Q14.30-20.43 14.11-21.45Q13.92-22.48 13.42-23.10Q12.92-23.73 11.86-23.73L11.86-23.73Q11.10-23.73 10.38-23.37Q9.66-23.01 9.04-22.58L9.04-22.58L9.04-5.12Q9.66-4.69 10.40-4.40Q11.15-4.11 11.91-4.11Z" transform="translate(-2.535211267605634, 38.74568163699177)"></path></g></g></g> <!----></g><defs v-gra="od"></defs></svg>